# xmcd CD database file
#
# Track frame offsets:
#	150
#	26640
#	38775
#	67145
#	88937
#	114135
#	146772
#	166685
#	192152
#	199402
#	218840
#
# Disc length: 3306 seconds
#
# Revision: 0
# Processed by: cddbd v1.4PL0 Copyright (c) Steve Scherf et al.
# Submitted via: CDex 1.50
#
DISCID=9e0ce80b
DTITLE=Ruma Club - Espiritista
DYEAR=1999
DGENRE=Jazz
TTITLE0=Children Of The Night
TTITLE1=Espiritista
TTITLE2=Delta
TTITLE3=Mosaic
TTITLE4=Cha Cha Cha
TTITLE5=Consolidation
TTITLE6=Baltonimo
TTITLE7=Infant Eyes
TTITLE8=Rumba Seguito
TTITLE9=Roots and Wings
TTITLE10=Things Ain't What They Used To Be
EXTD=YEAR: 1999
EXTT0=
EXTT1=
EXTT2=
EXTT3=
EXTT4=
EXTT5=
EXTT6=
EXTT7=
EXTT8=
EXTT9=
EXTT10=
PLAYORDER=
